# xmcd
#
# Track frame offsets:
# 150
# 23698
# 38810
# 58154
# 73887
# 91323
# 113074
# 131120
# 145780
# 169384
#
# Disc length: 2571 seconds
#
#
# Revision: 0
# Processed by: cddbd v1.5.2PL0 Copyright (c) Steve Scherf et al.
# Submitted via: FreeRIP 2.951 
#
DISCID=8f0a090a
DTITLE=Scanlan - Electricity
DYEAR=2005
DGENRE=Blues
TTITLE0=I've Been Told(2am mix)
TTITLE1=Leave Me Alone
TTITLE2=Sad Lady
TTITLE3=Every Day
TTITLE4=It Is You
TTITLE5=Protest Song
TTITLE6=Rosie
TTITLE7=Life
TTITLE8=Bike Ride
TTITLE9=I've Been Told(slinky dud mix)
EXTD=
EXTT0=
EXTT1=
EXTT2=
EXTT3=
EXTT4=
EXTT5=
EXTT6=
EXTT7=
EXTT8=
EXTT9=
PLAYORDER=
